<svg width="1758" height="1756" viewBox="0 0 1758 1756" fill="none" xmlns="http://www.w3.org/2000/svg">
<path d="M324.422 743.35C322.322 745.217 318.939 747.317 314.272 749.65C309.839 751.75 304.355 753.733 297.822 755.6C291.522 757.233 284.405 758.75 276.472 760.15C268.539 761.55 260.255 762.25 251.622 762.25C233.189 762.25 216.155 759.683 200.522 754.55C184.889 749.183 171.355 741.133 159.922 730.4C148.722 719.667 139.855 706.6 133.322 691.2C127.022 675.567 123.872 657.833 123.872 638C123.872 618.167 127.022 600.55 133.322 585.15C139.855 569.517 148.839 556.333 160.272 545.6C171.939 534.867 185.822 526.7 201.922 521.1C218.022 515.5 235.755 512.7 255.122 512.7C270.522 512.7 284.522 514.333 297.122 517.6C309.955 520.633 321.272 524.367 331.072 528.8C329.205 532.067 327.689 536.5 326.522 542.1C325.355 547.7 324.422 552.367 323.722 556.1L321.622 556.8C319.289 554 316.022 550.85 311.822 547.35C307.622 543.85 302.722 540.467 297.122 537.2C291.522 533.933 285.222 531.25 278.222 529.15C271.222 526.817 263.522 525.65 255.122 525.65C241.355 525.65 228.522 527.867 216.622 532.3C204.955 536.733 194.689 543.617 185.822 552.95C177.189 562.05 170.422 573.717 165.522 587.95C160.622 601.95 158.172 618.633 158.172 638C158.172 657.367 160.622 674.167 165.522 688.4C170.422 702.4 177.189 714.067 185.822 723.4C194.689 732.5 204.955 739.267 216.622 743.7C228.522 748.133 241.355 750.35 255.122 750.35C263.522 750.35 271.222 749.3 278.222 747.2C285.455 745.1 291.989 742.65 297.822 739.85C303.889 736.817 309.255 733.667 313.922 730.4C318.822 726.9 322.905 723.867 326.172 721.3L327.572 722.7L324.422 743.35ZM376.919 607.55C376.919 592.15 376.569 576.983 375.869 562.05C375.402 547.117 374.819 532.183 374.119 517.25C384.619 517.717 395.002 518.183 405.269 518.65C415.769 518.883 426.269 519 436.769 519C447.269 519 457.652 518.883 467.919 518.65C478.186 518.183 488.569 517.717 499.069 517.25C498.369 520.75 498.019 524.25 498.019 527.75C498.019 531.25 498.369 534.75 499.069 538.25C491.602 537.783 484.719 537.317 478.419 536.85C472.352 536.383 465.819 535.917 458.819 535.45C452.052 534.983 444.586 534.633 436.419 534.4C428.252 533.933 418.452 533.7 407.019 533.7C406.786 541.167 406.436 548.283 405.969 555.05C405.736 561.817 405.619 569.517 405.619 578.15C405.619 587.25 405.619 596.117 405.619 604.75C405.852 613.383 405.969 619.917 405.969 624.35C416.236 624.35 425.452 624.233 433.619 624C441.786 623.767 449.252 623.533 456.019 623.3C462.786 622.833 468.969 622.483 474.569 622.25C480.402 621.783 485.886 621.317 491.019 620.85C490.319 624.35 489.969 627.967 489.969 631.7C489.969 635.2 490.319 638.7 491.019 642.2C484.952 641.5 477.836 640.917 469.669 640.45C461.736 639.983 453.686 639.75 445.519 639.75C437.586 639.517 430.002 639.4 422.769 639.4C415.769 639.167 410.169 639.05 405.969 639.05C405.969 641.15 405.852 643.483 405.619 646.05C405.619 648.383 405.619 651.417 405.619 655.15V668.8V689.8C405.619 703.1 405.619 714.067 405.619 722.7C405.852 731.333 406.086 737.867 406.319 742.3C414.019 742.3 422.186 742.3 430.819 742.3C439.686 742.3 448.319 742.183 456.719 741.95C465.352 741.483 473.402 741.017 480.869 740.55C488.569 739.85 495.219 738.917 500.819 737.75C500.352 739.383 500.002 741.25 499.769 743.35C499.769 745.217 499.769 746.967 499.769 748.6C499.769 752.333 500.119 755.367 500.819 757.7C490.319 757.233 479.819 757 469.319 757C459.052 757 448.552 757 437.819 757C427.086 757 416.469 757 405.969 757C395.469 757 384.852 757.233 374.119 757.7C374.819 742.767 375.402 727.95 375.869 713.25C376.569 698.317 376.919 683.15 376.919 667.75V607.55ZM551.919 607.9C551.919 592.5 551.569 577.45 550.869 562.75C550.402 547.817 549.819 532.65 549.119 517.25C555.886 517.717 562.536 518.183 569.069 518.65C575.602 518.883 582.252 519 589.019 519C595.786 519 602.436 518.767 608.969 518.3C615.502 517.6 622.152 517.25 628.919 517.25C638.719 517.25 648.052 518.183 656.919 520.05C665.786 521.917 673.486 525.067 680.019 529.5C686.786 533.7 692.036 539.3 695.769 546.3C699.736 553.3 701.719 562.05 701.719 572.55C701.719 583.75 699.152 593.433 694.019 601.6C689.119 609.533 683.052 616.183 675.819 621.55C668.586 626.683 660.769 630.767 652.369 633.8C644.202 636.6 636.736 638.467 629.969 639.4C632.769 642.9 636.619 647.8 641.519 654.1C646.419 660.4 651.902 667.4 657.969 675.1C664.036 682.567 670.336 690.5 676.869 698.9C683.402 707.067 689.702 715 695.769 722.7C701.836 730.167 707.552 737.05 712.919 743.35C718.286 749.65 722.602 754.433 725.869 757.7C722.369 757.233 718.869 757 715.369 757C711.869 757 708.369 757 704.869 757C701.602 757 698.219 757 694.719 757C691.219 757 687.836 757.233 684.569 757.7C681.069 752.8 675.702 745.45 668.469 735.65C661.469 725.85 653.652 715.35 645.019 704.15C636.386 692.95 627.519 681.867 618.419 670.9C609.552 659.7 601.386 650.25 593.919 642.55H580.619V668.1C580.619 683.5 580.852 698.667 581.319 713.6C582.019 728.533 582.719 743.233 583.419 757.7C578.052 757.233 572.336 757 566.269 757C560.202 757 554.486 757.233 549.119 757.7C549.819 743.233 550.402 728.533 550.869 713.6C551.569 698.667 551.919 683.5 551.919 668.1V607.9ZM580.619 627.85C583.886 628.55 587.386 629.017 591.119 629.25C595.086 629.483 599.402 629.6 604.069 629.6C611.302 629.6 618.769 628.783 626.469 627.15C634.402 625.517 641.636 622.717 648.169 618.75C654.702 614.55 660.069 609.067 664.269 602.3C668.702 595.3 670.919 586.55 670.919 576.05C670.919 566.95 669.169 559.483 665.669 553.65C662.402 547.583 658.086 542.8 652.719 539.3C647.352 535.8 641.519 533.467 635.219 532.3C628.919 530.9 622.736 530.2 616.669 530.2C608.502 530.2 601.736 530.433 596.369 530.9C591.002 531.133 586.452 531.483 582.719 531.95C582.252 544.783 581.786 557.5 581.319 570.1C580.852 582.7 580.619 595.3 580.619 607.9V627.85ZM962.934 762.25C936.101 731.217 907.517 699.483 877.184 667.05C846.851 634.383 816.517 601.95 786.184 569.75C785.951 576.283 785.717 585.033 785.484 596C785.251 606.967 785.134 621.9 785.134 640.8C785.134 645.7 785.134 651.767 785.134 659C785.367 666.233 785.484 673.817 785.484 681.75C785.717 689.683 785.951 697.733 786.184 705.9C786.417 714.067 786.651 721.65 786.884 728.65C787.117 735.65 787.351 741.833 787.584 747.2C787.817 752.333 788.051 755.833 788.284 757.7C784.551 757.233 780.467 757 776.034 757C771.367 757 767.051 757.233 763.084 757.7C763.551 755.367 764.017 751.05 764.484 744.75C765.184 738.45 765.767 730.983 766.234 722.35C766.701 713.483 767.167 703.917 767.634 693.65C768.334 683.383 768.801 673.117 769.034 662.85C769.501 652.583 769.851 642.55 770.084 632.75C770.317 622.95 770.434 614.2 770.434 606.5C770.434 584.1 770.317 564.85 770.084 548.75C770.084 532.65 769.851 520.633 769.384 512.7H774.984C789.217 528.1 804.384 544.667 820.484 562.4C836.817 579.9 852.917 597.283 868.784 614.55C884.884 631.583 900.051 647.8 914.284 663.2C928.751 678.367 941.351 691.317 952.084 702.05V654.45C952.084 629.95 951.851 606.15 951.384 583.05C951.151 559.717 950.451 537.783 949.284 517.25C953.951 518.417 957.917 519 961.184 519C963.984 519 967.717 518.417 972.384 517.25C971.917 522.383 971.334 530.083 970.634 540.35C970.167 550.617 969.584 561.583 968.884 573.25C968.417 584.917 967.951 596.35 967.484 607.55C967.017 618.75 966.784 627.733 966.784 634.5C966.784 640.333 966.784 647.333 966.784 655.5C966.784 663.433 966.784 671.717 966.784 680.35C967.017 688.983 967.134 697.733 967.134 706.6C967.367 715.233 967.484 723.4 967.484 731.1C967.717 738.567 967.834 745.1 967.834 750.7C967.834 755.833 967.834 759.683 967.834 762.25H962.934Z" fill="#1E59AE"/>
<line x1="1216.7" y1="469.898" x2="1508.9" y2="1744.08" stroke="#1E59AE" stroke-width="30"/>
<line x1="1592" y1="152.868" x2="1510" y2="908.868" stroke="#1E59AE" stroke-width="30"/>
<line x1="1757.08" y1="15.2505" x2="626.084" y2="15.2505" stroke="#1E59AE" stroke-width="30"/>
<line x1="192.605" y1="1363.17" x2="29.6053" y2="761.171" stroke="#1E59AE" stroke-width="30"/>
<line x1="433.981" y1="1745.16" x2="1098.48" y2="1013.71" stroke="#1E59AE" stroke-width="30"/>
<line x1="433.981" y1="1745.16" x2="1098.48" y2="1013.71" stroke="#1E59AE" stroke-width="30"/>
<path fill-rule="evenodd" clip-rule="evenodd" d="M1390.82 1171.9C1383.93 1181.73 1376.77 1191.34 1369.33 1200.73L1377.8 1237.66C1385.33 1228.83 1392.63 1219.8 1399.69 1210.57L1390.82 1171.9ZM891.417 1432.02C1071.63 1432.02 1233.57 1353.78 1345.13 1229.43L1353.24 1264.8C1236.86 1386.34 1072.98 1462.02 891.417 1462.02C846.771 1462.02 803.194 1457.44 761.129 1448.73L784.765 1422.71C819.394 1428.83 855.033 1432.02 891.417 1432.02ZM1413.58 1136.93C1468.92 1045.17 1500.76 937.639 1500.76 822.67C1500.76 486.138 1227.95 213.325 891.417 213.325C692.541 213.325 515.918 308.599 404.7 455.995L375.636 444.798C491.987 286.25 679.682 183.325 891.417 183.325C1244.52 183.325 1530.76 469.569 1530.76 822.67C1530.76 954.166 1491.06 1076.39 1423 1178.01L1413.58 1136.93ZM252.071 822.251C252.071 822.39 252.071 822.53 252.071 822.67C252.071 920.784 274.172 1013.74 313.666 1096.82C329.721 1107.65 346.319 1117.74 363.409 1127.03C311.675 1037.47 282.071 933.529 282.071 822.67C282.071 822.53 282.071 822.39 282.071 822.251H252.071ZM727.648 1409.76C735.25 1411.87 742.912 1413.84 750.631 1415.67L727.737 1440.87C720.167 1438.87 712.652 1436.74 705.195 1434.47L727.648 1409.76ZM674.066 1424.12L695.981 1400C609.394 1370.7 531.535 1322.46 467.331 1260.22C447.949 1255.58 428.909 1250.05 410.256 1243.69C480.832 1324.28 571.331 1386.99 674.066 1424.12ZM394.898 1175.98C405.184 1190.41 416.083 1204.37 427.558 1217.83C409.015 1211.78 390.863 1204.86 373.149 1197.13C361.977 1181.7 351.478 1165.74 341.695 1149.31C358.951 1158.99 376.701 1167.9 394.898 1175.98Z" fill="#1E59AE"/>
<path fill-rule="evenodd" clip-rule="evenodd" d="M1221.19 625.596C1221.19 954.534 954.534 1221.19 625.596 1221.19C296.657 1221.19 30 954.534 30 625.596C30 296.657 296.657 30 625.596 30C767.88 30 898.51 79.8924 1000.95 163.137C1022.28 167.432 1043.24 172.765 1063.77 179.082C950.905 68.313 796.228 0 625.596 0C280.089 0 0 280.089 0 625.596C0 971.103 280.089 1251.19 625.596 1251.19C971.103 1251.19 1251.19 971.103 1251.19 625.596C1251.19 512.219 1221.03 405.887 1168.3 314.184C1151.95 305.548 1135.17 297.617 1118.01 290.43C1183.12 385.91 1221.19 501.307 1221.19 625.596ZM1047.95 205.657C1068.21 211.631 1088.05 218.605 1107.4 226.522C1113.86 234.321 1120.14 242.279 1126.23 250.39C1108.87 243.711 1091.14 237.752 1073.1 232.548C1064.99 223.327 1056.61 214.359 1047.95 205.657Z" fill="#1E59AE"/>
</svg>
