<svg width="3516" height="1899" viewBox="0 0 3516 1899" fill="none" xmlns="http://www.w3.org/2000/svg">
<path d="M1747 477L1755 1313" stroke="#D1BD49" stroke-width="18"/>
<path d="M1594.88 1316C1547.73 1087.56 1511.54 599.941 1744 477" stroke="#D1BD49" stroke-width="18"/>
<path d="M1910.65 1316C1961.14 1087.56 1999.88 599.941 1751 477" stroke="#D1BD49" stroke-width="18"/>
<path d="M1442.93 1320C1343.76 1112.92 1264.93 654.806 1743 479" stroke="#D1BD49" stroke-width="18"/>
<path d="M2068.47 1320C2171.08 1112.92 2252.64 654.806 1758 479" stroke="#D1BD49" stroke-width="18"/>
<line y1="1336" x2="3516" y2="1336" stroke="#D1BD49" stroke-width="18" stroke-linejoin="round"/>
<line x1="715" y1="1386" x2="2802" y2="1386" stroke="#D1BD49" stroke-width="18" stroke-linejoin="round"/>
<path d="M1595.29 47.1402C1160.35 124.106 830 504.18 830 961.457C830 1474.28 1245.48 1890 1758 1890C2270.52 1890 2686 1474.28 2686 961.457C2686 501.876 2352.31 120.279 1914.13 46" stroke="#D1BD49" stroke-width="18" stroke-linejoin="round"/>
<circle cx="1758" cy="59" r="59" fill="#D1BD49"/>
<path fill-rule="evenodd" clip-rule="evenodd" d="M2170.95 1323.75C2238.81 1235.8 2279.18 1125.56 2279.18 1005.88C2279.18 718.242 2046 485.066 1758.37 485.066C1470.73 485.066 1237.55 718.242 1237.55 1005.88C1237.55 1125.56 1277.92 1235.8 1345.78 1323.75H1323.26C1258.05 1234.65 1219.55 1124.76 1219.55 1005.88C1219.55 708.301 1460.79 467.066 1758.37 467.066C2055.94 467.066 2297.18 708.301 2297.18 1005.88C2297.18 1124.76 2258.68 1234.65 2193.47 1323.75H2170.95Z" fill="#D1BD49"/>
<path d="M1533.37 526H1982.78M1451.02 573.911H2060.37M1390.64 626.577H2122.21M1344.16 676.317H2170.16M1313.05 725.691H2204.56M1283.77 775.431H2232.37M1263.64 823.342H2251.04M1244.98 873.081H2267.87M1234 922.456H2280.31M1234 973.658H2280.31M1234 1023.03L2288 1018.64M1234 1071.31H2280.31M1244.98 1120.68H2267.87M1263.64 1168.96H2267.87M1283.77 1218.33H2241.52M1302.07 1271H2215.17" stroke="#D1BD49" stroke-width="18"/>
<path d="M1592.67 1683.25C1591.17 1684.58 1588.75 1686.08 1585.42 1687.75C1582.25 1689.25 1578.34 1690.67 1573.67 1692C1569.17 1693.17 1564.09 1694.25 1558.42 1695.25C1552.75 1696.25 1546.84 1696.75 1540.67 1696.75C1527.5 1696.75 1515.34 1694.92 1504.17 1691.25C1493 1687.42 1483.34 1681.67 1475.17 1674C1467.17 1666.33 1460.84 1657 1456.17 1646C1451.67 1634.83 1449.42 1622.17 1449.42 1608C1449.42 1593.83 1451.67 1581.25 1456.17 1570.25C1460.84 1559.08 1467.25 1549.67 1475.42 1542C1483.75 1534.33 1493.67 1528.5 1505.17 1524.5C1516.67 1520.5 1529.34 1518.5 1543.17 1518.5C1554.17 1518.5 1564.17 1519.67 1573.17 1522C1582.34 1524.17 1590.42 1526.83 1597.42 1530C1596.09 1532.33 1595 1535.5 1594.17 1539.5C1593.34 1543.5 1592.67 1546.83 1592.17 1549.5L1590.67 1550C1589 1548 1586.67 1545.75 1583.67 1543.25C1580.67 1540.75 1577.17 1538.33 1573.17 1536C1569.17 1533.67 1564.67 1531.75 1559.67 1530.25C1554.67 1528.58 1549.17 1527.75 1543.17 1527.75C1533.34 1527.75 1524.17 1529.33 1515.67 1532.5C1507.34 1535.67 1500 1540.58 1493.67 1547.25C1487.5 1553.75 1482.67 1562.08 1479.17 1572.25C1475.67 1582.25 1473.92 1594.17 1473.92 1608C1473.92 1621.83 1475.67 1633.83 1479.17 1644C1482.67 1654 1487.5 1662.33 1493.67 1669C1500 1675.5 1507.34 1680.33 1515.67 1683.5C1524.17 1686.67 1533.34 1688.25 1543.17 1688.25C1549.17 1688.25 1554.67 1687.5 1559.67 1686C1564.84 1684.5 1569.5 1682.75 1573.67 1680.75C1578 1678.58 1581.84 1676.33 1585.17 1674C1588.67 1671.5 1591.59 1669.33 1593.92 1667.5L1594.92 1668.5L1592.67 1683.25ZM1630.17 1586.25C1630.17 1575.25 1629.92 1564.42 1629.42 1553.75C1629.08 1543.08 1628.67 1532.42 1628.17 1521.75C1635.67 1522.08 1643.08 1522.42 1650.42 1522.75C1657.92 1522.92 1665.42 1523 1672.92 1523C1680.42 1523 1687.83 1522.92 1695.17 1522.75C1702.5 1522.42 1709.92 1522.08 1717.42 1521.75C1716.92 1524.25 1716.67 1526.75 1716.67 1529.25C1716.67 1531.75 1716.92 1534.25 1717.42 1536.75C1712.08 1536.42 1707.17 1536.08 1702.67 1535.75C1698.33 1535.42 1693.67 1535.08 1688.67 1534.75C1683.83 1534.42 1678.5 1534.17 1672.67 1534C1666.83 1533.67 1659.83 1533.5 1651.67 1533.5C1651.5 1538.83 1651.25 1543.92 1650.92 1548.75C1650.75 1553.58 1650.67 1559.08 1650.67 1565.25C1650.67 1571.75 1650.67 1578.08 1650.67 1584.25C1650.83 1590.42 1650.92 1595.08 1650.92 1598.25C1658.25 1598.25 1664.83 1598.17 1670.67 1598C1676.5 1597.83 1681.83 1597.67 1686.67 1597.5C1691.5 1597.17 1695.92 1596.92 1699.92 1596.75C1704.08 1596.42 1708 1596.08 1711.67 1595.75C1711.17 1598.25 1710.92 1600.83 1710.92 1603.5C1710.92 1606 1711.17 1608.5 1711.67 1611C1707.33 1610.5 1702.25 1610.08 1696.42 1609.75C1690.75 1609.42 1685 1609.25 1679.17 1609.25C1673.5 1609.08 1668.08 1609 1662.92 1609C1657.92 1608.83 1653.92 1608.75 1650.92 1608.75C1650.92 1610.25 1650.83 1611.92 1650.67 1613.75C1650.67 1615.42 1650.67 1617.58 1650.67 1620.25V1630V1645C1650.67 1654.5 1650.67 1662.33 1650.67 1668.5C1650.83 1674.67 1651 1679.33 1651.17 1682.5C1656.67 1682.5 1662.5 1682.5 1668.67 1682.5C1675 1682.5 1681.17 1682.42 1687.17 1682.25C1693.33 1681.92 1699.08 1681.58 1704.42 1681.25C1709.92 1680.75 1714.67 1680.08 1718.67 1679.25C1718.33 1680.42 1718.08 1681.75 1717.92 1683.25C1717.92 1684.58 1717.92 1685.83 1717.92 1687C1717.92 1689.67 1718.17 1691.83 1718.67 1693.5C1711.17 1693.17 1703.67 1693 1696.17 1693C1688.83 1693 1681.33 1693 1673.67 1693C1666 1693 1658.42 1693 1650.92 1693C1643.42 1693 1635.83 1693.17 1628.17 1693.5C1628.67 1682.83 1629.08 1672.25 1629.42 1661.75C1629.92 1651.08 1630.17 1640.25 1630.17 1629.25V1586.25ZM1755.17 1586.5C1755.17 1575.5 1754.92 1564.75 1754.42 1554.25C1754.08 1543.58 1753.67 1532.75 1753.17 1521.75C1758 1522.08 1762.75 1522.42 1767.42 1522.75C1772.08 1522.92 1776.83 1523 1781.67 1523C1786.5 1523 1791.25 1522.83 1795.92 1522.5C1800.58 1522 1805.33 1521.75 1810.17 1521.75C1817.17 1521.75 1823.83 1522.42 1830.17 1523.75C1836.5 1525.08 1842 1527.33 1846.67 1530.5C1851.5 1533.5 1855.25 1537.5 1857.92 1542.5C1860.75 1547.5 1862.17 1553.75 1862.17 1561.25C1862.17 1569.25 1860.33 1576.17 1856.67 1582C1853.17 1587.67 1848.83 1592.42 1843.67 1596.25C1838.5 1599.92 1832.92 1602.83 1826.92 1605C1821.08 1607 1815.75 1608.33 1810.92 1609C1812.92 1611.5 1815.67 1615 1819.17 1619.5C1822.67 1624 1826.58 1629 1830.92 1634.5C1835.25 1639.83 1839.75 1645.5 1844.42 1651.5C1849.08 1657.33 1853.58 1663 1857.92 1668.5C1862.25 1673.83 1866.33 1678.75 1870.17 1683.25C1874 1687.75 1877.08 1691.17 1879.42 1693.5C1876.92 1693.17 1874.42 1693 1871.92 1693C1869.42 1693 1866.92 1693 1864.42 1693C1862.08 1693 1859.67 1693 1857.17 1693C1854.67 1693 1852.25 1693.17 1849.92 1693.5C1847.42 1690 1843.58 1684.75 1838.42 1677.75C1833.42 1670.75 1827.83 1663.25 1821.67 1655.25C1815.5 1647.25 1809.17 1639.33 1802.67 1631.5C1796.33 1623.5 1790.5 1616.75 1785.17 1611.25H1775.67V1629.5C1775.67 1640.5 1775.83 1651.33 1776.17 1662C1776.67 1672.67 1777.17 1683.17 1777.67 1693.5C1773.83 1693.17 1769.75 1693 1765.42 1693C1761.08 1693 1757 1693.17 1753.17 1693.5C1753.67 1683.17 1754.08 1672.67 1754.42 1662C1754.92 1651.33 1755.17 1640.5 1755.17 1629.5V1586.5ZM1775.67 1600.75C1778 1601.25 1780.5 1601.58 1783.17 1601.75C1786 1601.92 1789.08 1602 1792.42 1602C1797.58 1602 1802.92 1601.42 1808.42 1600.25C1814.08 1599.08 1819.25 1597.08 1823.92 1594.25C1828.58 1591.25 1832.42 1587.33 1835.42 1582.5C1838.58 1577.5 1840.17 1571.25 1840.17 1563.75C1840.17 1557.25 1838.92 1551.92 1836.42 1547.75C1834.08 1543.42 1831 1540 1827.17 1537.5C1823.33 1535 1819.17 1533.33 1814.67 1532.5C1810.17 1531.5 1805.75 1531 1801.42 1531C1795.58 1531 1790.75 1531.17 1786.92 1531.5C1783.08 1531.67 1779.83 1531.92 1777.17 1532.25C1776.83 1541.42 1776.5 1550.5 1776.17 1559.5C1775.83 1568.5 1775.67 1577.5 1775.67 1586.5V1600.75ZM2048.75 1696.75C2029.58 1674.58 2009.17 1651.92 1987.5 1628.75C1965.83 1605.42 1944.17 1582.25 1922.5 1559.25C1922.33 1563.92 1922.17 1570.17 1922 1578C1921.83 1585.83 1921.75 1596.5 1921.75 1610C1921.75 1613.5 1921.75 1617.83 1921.75 1623C1921.92 1628.17 1922 1633.58 1922 1639.25C1922.17 1644.92 1922.33 1650.67 1922.5 1656.5C1922.67 1662.33 1922.83 1667.75 1923 1672.75C1923.17 1677.75 1923.33 1682.17 1923.5 1686C1923.67 1689.67 1923.83 1692.17 1924 1693.5C1921.33 1693.17 1918.42 1693 1915.25 1693C1911.92 1693 1908.83 1693.17 1906 1693.5C1906.33 1691.83 1906.67 1688.75 1907 1684.25C1907.5 1679.75 1907.92 1674.42 1908.25 1668.25C1908.58 1661.92 1908.92 1655.08 1909.25 1647.75C1909.75 1640.42 1910.08 1633.08 1910.25 1625.75C1910.58 1618.42 1910.83 1611.25 1911 1604.25C1911.17 1597.25 1911.25 1591 1911.25 1585.5C1911.25 1569.5 1911.17 1555.75 1911 1544.25C1911 1532.75 1910.83 1524.17 1910.5 1518.5H1914.5C1924.67 1529.5 1935.5 1541.33 1947 1554C1958.67 1566.5 1970.17 1578.92 1981.5 1591.25C1993 1603.42 2003.83 1615 2014 1626C2024.33 1636.83 2033.33 1646.08 2041 1653.75V1619.75C2041 1602.25 2040.83 1585.25 2040.5 1568.75C2040.33 1552.08 2039.83 1536.42 2039 1521.75C2042.33 1522.58 2045.17 1523 2047.5 1523C2049.5 1523 2052.17 1522.58 2055.5 1521.75C2055.17 1525.42 2054.75 1530.92 2054.25 1538.25C2053.92 1545.58 2053.5 1553.42 2053 1561.75C2052.67 1570.08 2052.33 1578.25 2052 1586.25C2051.67 1594.25 2051.5 1600.67 2051.5 1605.5C2051.5 1609.67 2051.5 1614.67 2051.5 1620.5C2051.5 1626.17 2051.5 1632.08 2051.5 1638.25C2051.67 1644.42 2051.75 1650.67 2051.75 1657C2051.92 1663.17 2052 1669 2052 1674.5C2052.17 1679.83 2052.25 1684.5 2052.25 1688.5C2052.25 1692.17 2052.25 1694.92 2052.25 1696.75H2048.75Z" fill="#D1BD49"/>
</svg>
