<svg width="1758" height="1754" viewBox="0 0 1758 1754" fill="none" xmlns="http://www.w3.org/2000/svg">
<path d="M325.338 743.35C323.238 745.217 319.855 747.317 315.188 749.65C310.755 751.75 305.271 753.733 298.738 755.6C292.438 757.233 285.321 758.75 277.388 760.15C269.455 761.55 261.171 762.25 252.538 762.25C234.105 762.25 217.071 759.683 201.438 754.55C185.805 749.183 172.271 741.133 160.838 730.4C149.638 719.667 140.771 706.6 134.238 691.2C127.938 675.567 124.788 657.833 124.788 638C124.788 618.167 127.938 600.55 134.238 585.15C140.771 569.517 149.755 556.333 161.188 545.6C172.855 534.867 186.738 526.7 202.838 521.1C218.938 515.5 236.671 512.7 256.038 512.7C271.438 512.7 285.438 514.333 298.038 517.6C310.871 520.633 322.188 524.367 331.988 528.8C330.121 532.067 328.605 536.5 327.438 542.1C326.271 547.7 325.338 552.367 324.638 556.1L322.538 556.8C320.205 554 316.938 550.85 312.738 547.35C308.538 543.85 303.638 540.467 298.038 537.2C292.438 533.933 286.138 531.25 279.138 529.15C272.138 526.817 264.438 525.65 256.038 525.65C242.271 525.65 229.438 527.867 217.538 532.3C205.871 536.733 195.605 543.617 186.738 552.95C178.105 562.05 171.338 573.717 166.438 587.95C161.538 601.95 159.088 618.633 159.088 638C159.088 657.367 161.538 674.167 166.438 688.4C171.338 702.4 178.105 714.067 186.738 723.4C195.605 732.5 205.871 739.267 217.538 743.7C229.438 748.133 242.271 750.35 256.038 750.35C264.438 750.35 272.138 749.3 279.138 747.2C286.371 745.1 292.905 742.65 298.738 739.85C304.805 736.817 310.171 733.667 314.838 730.4C319.738 726.9 323.821 723.867 327.088 721.3L328.488 722.7L325.338 743.35ZM377.835 607.55C377.835 592.15 377.485 576.983 376.785 562.05C376.318 547.117 375.735 532.183 375.035 517.25C385.535 517.717 395.918 518.183 406.185 518.65C416.685 518.883 427.185 519 437.685 519C448.185 519 458.568 518.883 468.835 518.65C479.102 518.183 489.485 517.717 499.985 517.25C499.285 520.75 498.935 524.25 498.935 527.75C498.935 531.25 499.285 534.75 499.985 538.25C492.518 537.783 485.635 537.317 479.335 536.85C473.268 536.383 466.735 535.917 459.735 535.45C452.968 534.983 445.502 534.633 437.335 534.4C429.168 533.933 419.368 533.7 407.935 533.7C407.702 541.167 407.352 548.283 406.885 555.05C406.652 561.817 406.535 569.517 406.535 578.15C406.535 587.25 406.535 596.117 406.535 604.75C406.768 613.383 406.885 619.917 406.885 624.35C417.152 624.35 426.368 624.233 434.535 624C442.702 623.767 450.168 623.533 456.935 623.3C463.702 622.833 469.885 622.483 475.485 622.25C481.318 621.783 486.802 621.317 491.935 620.85C491.235 624.35 490.885 627.967 490.885 631.7C490.885 635.2 491.235 638.7 491.935 642.2C485.868 641.5 478.752 640.917 470.585 640.45C462.652 639.983 454.602 639.75 446.435 639.75C438.502 639.517 430.918 639.4 423.685 639.4C416.685 639.167 411.085 639.05 406.885 639.05C406.885 641.15 406.768 643.483 406.535 646.05C406.535 648.383 406.535 651.417 406.535 655.15V668.8V689.8C406.535 703.1 406.535 714.067 406.535 722.7C406.768 731.333 407.002 737.867 407.235 742.3C414.935 742.3 423.102 742.3 431.735 742.3C440.602 742.3 449.235 742.183 457.635 741.95C466.268 741.483 474.318 741.017 481.785 740.55C489.485 739.85 496.135 738.917 501.735 737.75C501.268 739.383 500.918 741.25 500.685 743.35C500.685 745.217 500.685 746.967 500.685 748.6C500.685 752.333 501.035 755.367 501.735 757.7C491.235 757.233 480.735 757 470.235 757C459.968 757 449.468 757 438.735 757C428.002 757 417.385 757 406.885 757C396.385 757 385.768 757.233 375.035 757.7C375.735 742.767 376.318 727.95 376.785 713.25C377.485 698.317 377.835 683.15 377.835 667.75V607.55ZM552.835 607.9C552.835 592.5 552.485 577.45 551.785 562.75C551.318 547.817 550.735 532.65 550.035 517.25C556.802 517.717 563.452 518.183 569.985 518.65C576.518 518.883 583.168 519 589.935 519C596.702 519 603.352 518.767 609.885 518.3C616.418 517.6 623.068 517.25 629.835 517.25C639.635 517.25 648.968 518.183 657.835 520.05C666.702 521.917 674.402 525.067 680.935 529.5C687.702 533.7 692.952 539.3 696.685 546.3C700.652 553.3 702.635 562.05 702.635 572.55C702.635 583.75 700.068 593.433 694.935 601.6C690.035 609.533 683.968 616.183 676.735 621.55C669.502 626.683 661.685 630.767 653.285 633.8C645.118 636.6 637.652 638.467 630.885 639.4C633.685 642.9 637.535 647.8 642.435 654.1C647.335 660.4 652.818 667.4 658.885 675.1C664.952 682.567 671.252 690.5 677.785 698.9C684.318 707.067 690.618 715 696.685 722.7C702.752 730.167 708.468 737.05 713.835 743.35C719.202 749.65 723.518 754.433 726.785 757.7C723.285 757.233 719.785 757 716.285 757C712.785 757 709.285 757 705.785 757C702.518 757 699.135 757 695.635 757C692.135 757 688.752 757.233 685.485 757.7C681.985 752.8 676.618 745.45 669.385 735.65C662.385 725.85 654.568 715.35 645.935 704.15C637.302 692.95 628.435 681.867 619.335 670.9C610.468 659.7 602.302 650.25 594.835 642.55H581.535V668.1C581.535 683.5 581.768 698.667 582.235 713.6C582.935 728.533 583.635 743.233 584.335 757.7C578.968 757.233 573.252 757 567.185 757C561.118 757 555.402 757.233 550.035 757.7C550.735 743.233 551.318 728.533 551.785 713.6C552.485 698.667 552.835 683.5 552.835 668.1V607.9ZM581.535 627.85C584.802 628.55 588.302 629.017 592.035 629.25C596.002 629.483 600.318 629.6 604.985 629.6C612.218 629.6 619.685 628.783 627.385 627.15C635.318 625.517 642.552 622.717 649.085 618.75C655.618 614.55 660.985 609.067 665.185 602.3C669.618 595.3 671.835 586.55 671.835 576.05C671.835 566.95 670.085 559.483 666.585 553.65C663.318 547.583 659.002 542.8 653.635 539.3C648.268 535.8 642.435 533.467 636.135 532.3C629.835 530.9 623.652 530.2 617.585 530.2C609.418 530.2 602.652 530.433 597.285 530.9C591.918 531.133 587.368 531.483 583.635 531.95C583.168 544.783 582.702 557.5 582.235 570.1C581.768 582.7 581.535 595.3 581.535 607.9V627.85ZM963.85 762.25C937.017 731.217 908.433 699.483 878.1 667.05C847.767 634.383 817.433 601.95 787.1 569.75C786.867 576.283 786.633 585.033 786.4 596C786.167 606.967 786.05 621.9 786.05 640.8C786.05 645.7 786.05 651.767 786.05 659C786.283 666.233 786.4 673.817 786.4 681.75C786.633 689.683 786.867 697.733 787.1 705.9C787.333 714.067 787.567 721.65 787.8 728.65C788.033 735.65 788.267 741.833 788.5 747.2C788.733 752.333 788.967 755.833 789.2 757.7C785.467 757.233 781.383 757 776.95 757C772.283 757 767.967 757.233 764 757.7C764.467 755.367 764.933 751.05 765.4 744.75C766.1 738.45 766.683 730.983 767.15 722.35C767.617 713.483 768.083 703.917 768.55 693.65C769.25 683.383 769.717 673.117 769.95 662.85C770.417 652.583 770.767 642.55 771 632.75C771.233 622.95 771.35 614.2 771.35 606.5C771.35 584.1 771.233 564.85 771 548.75C771 532.65 770.767 520.633 770.3 512.7H775.9C790.133 528.1 805.3 544.667 821.4 562.4C837.733 579.9 853.833 597.283 869.7 614.55C885.8 631.583 900.967 647.8 915.2 663.2C929.667 678.367 942.267 691.317 953 702.05V654.45C953 629.95 952.767 606.15 952.3 583.05C952.067 559.717 951.367 537.783 950.2 517.25C954.867 518.417 958.833 519 962.1 519C964.9 519 968.633 518.417 973.3 517.25C972.833 522.383 972.25 530.083 971.55 540.35C971.083 550.617 970.5 561.583 969.8 573.25C969.333 584.917 968.867 596.35 968.4 607.55C967.933 618.75 967.7 627.733 967.7 634.5C967.7 640.333 967.7 647.333 967.7 655.5C967.7 663.433 967.7 671.717 967.7 680.35C967.933 688.983 968.05 697.733 968.05 706.6C968.283 715.233 968.4 723.4 968.4 731.1C968.633 738.567 968.75 745.1 968.75 750.7C968.75 755.833 968.75 759.683 968.75 762.25H963.85Z" fill="white"/>
<line x1="1221.72" y1="470.541" x2="1513.91" y2="1744.73" stroke="white" stroke-width="22"/>
<line x1="1595.94" y1="159.186" x2="1513.94" y2="915.186" stroke="white" stroke-width="22"/>
<line x1="1758" y1="11" x2="627" y2="11" stroke="white" stroke-width="22"/>
<line x1="189.382" y1="1361.87" x2="26.3823" y2="759.875" stroke="white" stroke-width="22"/>
<line x1="437.858" y1="1746.06" x2="1102.36" y2="1014.6" stroke="white" stroke-width="22"/>
<path fill-rule="evenodd" clip-rule="evenodd" d="M1230.11 625.596C1230.11 958.953 959.869 1229.19 626.512 1229.19C293.155 1229.19 22.916 958.953 22.916 625.596C22.916 292.239 293.155 22 626.512 22C776.225 22 913.208 76.5069 1018.7 166.759C1034.25 170.32 1049.58 174.435 1064.68 179.082C951.821 68.313 797.144 0 626.512 0C281.005 0 0.916016 280.089 0.916016 625.596C0.916016 971.103 281.005 1251.19 626.512 1251.19C972.019 1251.19 1252.11 971.103 1252.11 625.596C1252.11 512.219 1221.95 405.887 1169.21 314.184C1157.18 307.829 1144.92 301.855 1132.44 296.279C1194.21 390.981 1230.11 504.096 1230.11 625.596ZM1064.8 210.588C1079.55 215.373 1094.06 220.692 1108.31 226.522C1114.78 234.321 1121.06 242.279 1127.15 250.39C1114.37 245.477 1101.4 240.953 1088.26 236.833C1080.69 227.857 1072.87 219.105 1064.8 210.588Z" fill="white"/>
<path fill-rule="evenodd" clip-rule="evenodd" d="M892.333 1440.02C1072.89 1440.02 1235.34 1362.5 1348.23 1238.94L1354.16 1264.8C1237.78 1386.34 1073.89 1462.02 892.333 1462.02C847.687 1462.02 804.11 1457.44 762.045 1448.73L779.336 1429.7C815.969 1436.47 853.737 1440.02 892.333 1440.02ZM1417.05 1148.08C1475.77 1053.6 1509.68 942.094 1509.68 822.67C1509.68 481.72 1233.28 205.325 892.333 205.325C690.027 205.325 510.449 302.636 397.855 453.005L376.552 444.798C492.903 286.25 680.598 183.325 892.333 183.325C1245.43 183.325 1531.68 469.569 1531.68 822.67C1531.68 954.166 1491.98 1076.39 1423.91 1178.01L1417.05 1148.08ZM252.987 822.25H274.987L274.987 822.67C274.987 930.265 302.512 1031.43 350.905 1119.51C338.517 1112.36 326.403 1104.79 314.582 1096.82C275.088 1013.74 252.987 920.784 252.987 822.67L252.987 822.25ZM722.551 1416.38C730.112 1418.53 737.733 1420.55 745.411 1422.43L728.653 1440.87C721.083 1438.87 713.568 1436.74 706.111 1434.47L722.551 1416.38ZM674.982 1424.12L691.034 1406.45C600.238 1375.15 519.031 1323.26 452.99 1256.37C438.853 1252.61 424.907 1248.38 411.172 1243.69C481.748 1324.28 572.247 1386.99 674.982 1424.12Z" fill="white"/>
</svg>
